<?xml version="1.0" ?>
<svg height="32" viewBox="0 0 32 32" width="32" xmlns="http://www.w3.org/2000/svg">
    <title/>
    <path d="M24.918,27H7a1,1,0,0,1-.707-.293L5.22,25.634a3.485,3.485,0,0,1-.962-3.105L7,7.9a4,4,0,1,1,6,3.552V18h3.176a6.552,6.552,0,0,1,6.607-2.654h0a6.481,6.481,0,0,1,2.76,11.435A1,1,0,0,1,24.918,27Zm-17.5-2H24.548a4.447,4.447,0,0,0,1.37-4.147A4.53,4.53,0,0,0,22.4,17.31h0A4.485,4.485,0,0,0,17.593,19.5a1,1,0,0,1-.868.5H12a1,1,0,0,1-1-1V10.816a1,1,0,0,1,.665-.942A1.994,1.994,0,1,0,9,8a.968.968,0,0,1-.018.184L6.224,22.9a1.486,1.486,0,0,0,.41,1.324Z"/>
</svg>